<svg width="1409" height="354" viewBox="0 0 1409 354" fill="none" xmlns="http://www.w3.org/2000/svg">
<g clip-path="url(#clip0_1991_1556)">
<mask id="mask0_1991_1556" style="mask-type:alpha" maskUnits="userSpaceOnUse" x="0" y="1" width="1409" height="354">
<path d="M36.8479 340.962H19.9867C16.3614 340.962 13.4126 338.012 13.4126 334.386C13.4126 334.347 13.3816 334.316 13.3433 334.316H0.0692633C0.0310311 334.316 0 334.347 0 334.386C0 345.411 8.9661 354.38 19.9867 354.38H36.8479C47.8691 354.38 56.8347 345.411 56.8347 334.386C56.8347 323.361 47.8686 314.391 36.8479 314.391H19.9867C16.3614 314.391 13.4126 311.441 13.4126 307.815C13.4126 304.188 16.3614 301.238 19.9867 301.238H36.8479C40.4733 301.238 43.4221 304.188 43.4221 307.815C43.4221 307.853 43.4531 307.884 43.4913 307.884H56.7654C56.8036 307.884 56.8347 307.853 56.8347 307.815C56.8347 296.79 47.8686 287.82 36.8479 287.82H19.9867C8.96557 287.82 0 296.79 0 307.815C0 318.839 8.9661 327.809 19.9867 327.809H36.8479C40.4733 327.809 43.4221 330.759 43.4221 334.386C43.4221 338.012 40.4733 340.962 36.8479 340.962Z" fill="white"/>
<path d="M85.2695 354.381H99.2101C99.2406 354.381 99.2672 354.362 99.276 354.333L102.185 345.289H125.025L127.934 354.333C127.943 354.362 127.969 354.381 127.999 354.381H141.94C141.962 354.381 141.983 354.371 141.996 354.353C142.009 354.335 142.013 354.312 142.007 354.291L120.642 287.87C120.632 287.841 120.606 287.822 120.576 287.822H106.635C106.605 287.822 106.578 287.841 106.569 287.87L85.2035 354.291C85.1969 354.312 85.2002 354.335 85.2135 354.353C85.2268 354.371 85.2473 354.381 85.2695 354.381ZM106.503 331.864L113.605 309.785L120.707 331.864H106.503Z" fill="white"/>
<path d="M175.217 354.38H188.491C188.53 354.38 188.561 354.349 188.561 354.31V287.889C188.561 287.851 188.53 287.82 188.491 287.82H175.217C175.179 287.82 175.148 287.851 175.148 287.889V354.31C175.148 354.349 175.179 354.38 175.217 354.38Z" fill="white"/>
<path d="M221.773 301.243H243.4V354.31C243.4 354.349 243.431 354.38 243.469 354.38H256.749C256.787 354.38 256.818 354.349 256.818 354.31V301.243H278.445C278.483 301.243 278.514 301.212 278.514 301.174V287.889C278.514 287.851 278.483 287.82 278.445 287.82H221.773C221.735 287.82 221.704 287.851 221.704 287.889V301.174C221.704 301.212 221.735 301.243 221.773 301.243Z" fill="white"/>
<path d="M293.681 354.381H307.621C307.652 354.381 307.678 354.362 307.687 354.333L310.596 345.289H333.436L336.345 354.333C336.354 354.362 336.38 354.381 336.411 354.381H350.351C350.373 354.381 350.394 354.371 350.407 354.353C350.42 354.335 350.424 354.312 350.418 354.291L329.053 287.87C329.044 287.841 329.018 287.822 328.987 287.822H315.046C315.016 287.822 314.989 287.841 314.981 287.87L293.615 354.291C293.608 354.312 293.611 354.335 293.625 354.353C293.638 354.371 293.658 354.381 293.681 354.381ZM314.915 331.864L322.016 309.785L329.118 331.864H314.915Z" fill="white"/>
<path d="M440.319 354.312C440.319 354.35 440.35 354.381 440.388 354.381H453.664C453.702 354.381 453.733 354.35 453.733 354.312V287.891C453.733 287.853 453.702 287.822 453.664 287.822H438.056C438.032 287.822 438.009 287.834 437.997 287.854L418.646 319.16L399.295 287.854C399.283 287.834 399.261 287.822 399.237 287.822H383.628C383.59 287.822 383.559 287.853 383.559 287.891V354.312C383.559 354.35 383.59 354.381 383.628 354.381H396.899C396.937 354.381 396.968 354.35 396.968 354.312V309.597L418.587 344.571C418.612 344.612 418.681 344.612 418.705 344.571L440.32 309.608L440.319 354.312Z" fill="white"/>
<path d="M486.964 354.381H500.904C500.935 354.381 500.962 354.362 500.97 354.333L503.879 345.289H526.719L529.628 354.333C529.637 354.362 529.663 354.381 529.694 354.381H543.634C543.657 354.381 543.677 354.371 543.69 354.353C543.704 354.335 543.707 354.312 543.701 354.291L522.336 287.87C522.327 287.841 522.301 287.822 522.27 287.822H508.33C508.299 287.822 508.273 287.841 508.264 287.87L486.898 354.291C486.891 354.312 486.895 354.335 486.908 354.353C486.921 354.371 486.942 354.381 486.964 354.381ZM508.198 331.864L515.299 309.785L522.401 331.864H508.198Z" fill="white"/>
<path d="M687.166 287.822H673.892C673.854 287.822 673.823 287.853 673.823 287.891V325.963C673.823 334.234 667.097 340.962 658.83 340.962C650.562 340.962 643.836 334.233 643.836 325.963V287.891C643.836 287.853 643.805 287.822 643.767 287.822H630.494C630.455 287.822 630.424 287.853 630.424 287.891V325.963C630.424 341.632 643.167 354.38 658.83 354.38C674.492 354.38 687.235 341.632 687.235 325.963V287.891C687.235 287.853 687.204 287.822 687.166 287.822Z" fill="white"/>
<path d="M720.441 354.381H733.712C733.75 354.381 733.781 354.35 733.781 354.312V309.603L761.445 354.349C761.458 354.369 761.48 354.381 761.504 354.381H777.112C777.151 354.381 777.182 354.35 777.182 354.312V287.891C777.182 287.853 777.151 287.822 777.112 287.822H763.837C763.799 287.822 763.767 287.853 763.767 287.891V332.6L736.109 287.854C736.097 287.834 736.074 287.822 736.05 287.822H720.441C720.403 287.822 720.372 287.853 720.372 287.891V354.312C720.372 354.35 720.403 354.381 720.441 354.381Z" fill="white"/>
<path d="M810.389 354.38H823.663C823.701 354.38 823.732 354.349 823.732 354.31V287.889C823.732 287.851 823.701 287.82 823.663 287.82H810.389C810.351 287.82 810.32 287.851 810.32 287.889V354.31C810.32 354.349 810.351 354.38 810.389 354.38Z" fill="white"/>
<path d="M878.311 354.381H892.251C892.282 354.381 892.308 354.362 892.317 354.333L913.683 287.912C913.689 287.891 913.686 287.868 913.672 287.85C913.659 287.832 913.638 287.822 913.616 287.822H899.675C899.645 287.822 899.618 287.841 899.61 287.87L885.281 332.419L870.952 287.87C870.943 287.841 870.917 287.822 870.886 287.822H856.945C856.923 287.822 856.903 287.832 856.889 287.85C856.876 287.868 856.873 287.891 856.879 287.912L878.245 354.333C878.254 354.362 878.28 354.381 878.311 354.381Z" fill="white"/>
<path d="M946.893 354.38H1003.57C1003.6 354.38 1003.64 354.349 1003.64 354.31V341.026C1003.64 340.988 1003.6 340.957 1003.57 340.957H960.242V327.811H990.292C990.33 327.811 990.361 327.78 990.361 327.742V314.458C990.361 314.42 990.33 314.388 990.292 314.388H960.242V301.243H1003.57C1003.6 301.243 1003.64 301.212 1003.64 301.174V287.889C1003.64 287.851 1003.6 287.82 1003.57 287.82H946.893C946.855 287.82 946.824 287.851 946.824 287.889V354.31C946.824 354.349 946.855 354.38 946.893 354.38Z" fill="white"/>
<path d="M1036.84 354.381H1050.12C1050.16 354.381 1050.19 354.35 1050.19 354.312V339.831H1067.59C1068.01 339.831 1068.44 339.819 1068.86 339.799L1077.85 354.349C1077.86 354.369 1077.89 354.381 1077.91 354.381H1093.51C1093.54 354.381 1093.56 354.367 1093.57 354.346C1093.58 354.324 1093.58 354.297 1093.57 354.276L1081.96 335.49C1089.24 330.659 1093.58 322.567 1093.58 313.827C1093.58 299.488 1081.92 287.822 1067.59 287.822H1036.84C1036.8 287.822 1036.77 287.853 1036.77 287.891V354.312C1036.77 354.35 1036.8 354.381 1036.84 354.381ZM1074.84 324.108C1072.72 325.615 1070.21 326.412 1067.59 326.412H1050.19V301.241H1067.59C1074.52 301.241 1080.17 306.887 1080.17 313.827C1080.17 317.908 1078.18 321.751 1074.84 324.108Z" fill="white"/>
<path d="M1162.14 340.962H1145.28C1141.66 340.962 1138.71 338.012 1138.71 334.386C1138.71 334.347 1138.68 334.316 1138.64 334.316H1125.36C1125.33 334.316 1125.29 334.347 1125.29 334.386C1125.29 345.411 1134.26 354.38 1145.28 354.38H1162.14C1173.16 354.38 1182.13 345.411 1182.13 334.386C1182.13 323.361 1173.16 314.391 1162.14 314.391H1145.28C1141.66 314.391 1138.71 311.441 1138.71 307.815C1138.71 304.188 1141.66 301.238 1145.28 301.238H1162.14C1165.77 301.238 1168.72 304.188 1168.72 307.815C1168.72 307.853 1168.75 307.884 1168.79 307.884H1182.06C1182.1 307.884 1182.13 307.853 1182.13 307.815C1182.13 296.79 1173.16 287.82 1162.14 287.82H1145.28C1134.26 287.82 1125.29 296.79 1125.29 307.815C1125.29 318.839 1134.26 327.809 1145.28 327.809H1162.14C1165.77 327.809 1168.72 330.759 1168.72 334.386C1168.72 338.012 1165.77 340.962 1162.14 340.962Z" fill="white"/>
<path d="M1215.31 354.38H1228.59C1228.62 354.38 1228.65 354.349 1228.65 354.31V287.889C1228.65 287.851 1228.62 287.82 1228.59 287.82H1215.31C1215.27 287.82 1215.24 287.851 1215.24 287.889V354.31C1215.24 354.349 1215.27 354.38 1215.31 354.38Z" fill="white"/>
<path d="M1261.87 301.243H1283.49V354.31C1283.49 354.349 1283.53 354.38 1283.56 354.38H1296.84C1296.88 354.38 1296.91 354.349 1296.91 354.31V301.243H1318.54C1318.58 301.243 1318.61 301.212 1318.61 301.174V287.889C1318.61 287.851 1318.58 287.82 1318.54 287.82H1261.87C1261.83 287.82 1261.8 287.851 1261.8 287.889V301.174C1261.8 301.212 1261.83 301.243 1261.87 301.243Z" fill="white"/>
<path d="M1408.54 287.854C1408.53 287.834 1408.51 287.822 1408.49 287.822H1393.87C1393.84 287.822 1393.82 287.837 1393.81 287.862L1380.15 317.424L1366.49 287.862C1366.48 287.838 1366.46 287.822 1366.43 287.822H1351.81C1351.79 287.822 1351.77 287.834 1351.76 287.854C1351.74 287.874 1351.74 287.899 1351.75 287.92L1372.77 333.45L1373.44 334.9V354.312C1373.44 354.35 1373.48 354.381 1373.51 354.381H1386.79C1386.83 354.381 1386.86 354.35 1386.86 354.312V334.903L1387.53 333.45C1387.53 333.448 1387.53 333.445 1387.53 333.443L1408.55 287.92C1408.56 287.899 1408.56 287.874 1408.54 287.854Z" fill="white"/>
<path d="M200.443 236.065C200.443 236.2 200.553 236.31 200.688 236.31H247.57C247.705 236.31 247.815 236.2 247.815 236.065V1.50417C247.815 1.3691 247.705 1.25952 247.57 1.25952H192.45C192.366 1.25952 192.286 1.30261 192.243 1.37501L123.907 111.93L55.572 1.37501C55.5289 1.30258 55.4487 1.25952 55.3646 1.25952H0.244584C0.109563 1.25952 0 1.3691 0 1.50417V236.065C0 236.2 0.109563 236.31 0.244584 236.31H47.1073C47.2424 236.31 47.3519 236.2 47.3519 236.065V78.1578L123.7 201.665C123.788 201.81 124.029 201.81 124.117 201.665L200.445 78.197L200.443 236.065Z" fill="white"/>
<path d="M577.815 74.3283C577.86 74.4007 577.938 74.4438 578.022 74.4438C578.106 74.4438 578.184 74.4007 578.229 74.3283L623.175 1.62872C623.222 1.5524 623.224 1.45844 623.181 1.38013C623.137 1.30182 623.055 1.25486 622.967 1.25486H533.077C532.989 1.25486 532.907 1.30182 532.864 1.38013C532.82 1.45844 532.822 1.55236 532.869 1.62872L577.815 74.3283ZM578.231 163.232C578.141 163.089 577.905 163.089 577.815 163.232L532.869 235.931C532.823 236.008 532.821 236.102 532.864 236.18C532.907 236.258 532.989 236.305 533.077 236.305H622.967C623.055 236.305 623.138 236.258 623.181 236.18C623.224 236.102 623.222 236.008 623.175 235.931L578.231 163.232ZM550.683 118.661L478.188 1.3704C478.184 1.36259 478.172 1.36056 478.166 1.35274C478.149 1.32926 478.127 1.31558 478.102 1.29991C478.078 1.28622 478.057 1.27645 478.029 1.27058C478.012 1.26665 477.998 1.24902 477.978 1.24902H382.453C382.449 1.24902 382.445 1.25491 382.441 1.25491H353.298C353.192 1.25491 353.097 1.32339 353.065 1.42518L277.615 235.986C277.592 236.06 277.606 236.143 277.651 236.205C277.696 236.268 277.77 236.305 277.848 236.305H327.079C327.184 236.305 327.28 236.237 327.311 236.135L337.584 204.197H418.243L428.515 236.135C428.549 236.237 428.642 236.305 428.748 236.305H477.978C477.994 236.305 478.01 236.303 478.025 236.301C478.086 236.29 478.135 236.254 478.17 236.209C478.17 236.207 478.174 236.207 478.176 236.205C478.178 236.203 478.176 236.198 478.178 236.196C478.18 236.194 478.184 236.194 478.186 236.192L550.681 118.921C550.73 118.841 550.73 118.741 550.683 118.661ZM352.834 156.786L377.913 78.8148L402.992 156.786H352.834Z" fill="white"/>
<path d="M653.023 236.304H699.9C700.035 236.304 700.144 236.194 700.144 236.059V1.49837C700.144 1.36329 700.035 1.25366 699.9 1.25366H653.023C652.888 1.25366 652.779 1.36329 652.779 1.49837V236.059C652.779 236.194 652.888 236.304 653.023 236.304Z" fill="white"/>
<path d="M930.314 236.065C930.314 236.2 930.424 236.31 930.559 236.31H977.441C977.576 236.31 977.685 236.2 977.685 236.065V1.50417C977.685 1.3691 977.576 1.25952 977.441 1.25952H922.321C922.237 1.25952 922.157 1.30261 922.114 1.37501L853.778 111.93L785.443 1.37501C785.399 1.30258 785.319 1.25952 785.235 1.25952H730.115C729.98 1.25952 729.871 1.3691 729.871 1.50417V236.065C729.871 236.2 729.98 236.31 730.115 236.31H776.978C777.113 236.31 777.222 236.2 777.222 236.065V78.1578L853.571 201.665C853.659 201.81 853.899 201.81 853.987 201.665L930.316 78.197L930.314 236.065Z" fill="white"/>
<path d="M1114.35 135.96V1.49544C1114.35 1.36036 1114.24 1.25073 1114.1 1.25073H1007.72C1007.58 1.25073 1007.47 1.36036 1007.47 1.49544V135.96C1007.47 165.432 1031.44 189.408 1060.9 189.408C1090.37 189.408 1114.35 165.432 1114.35 135.96ZM1408.31 1.26445H1353.19C1353.11 1.26445 1353.03 1.30756 1352.98 1.38194L1284.65 111.937L1216.31 1.38C1216.27 1.30756 1216.19 1.26251 1216.11 1.26251H1160.99C1160.85 1.26251 1160.74 1.37214 1160.74 1.50721V135.956C1160.74 191.019 1115.96 235.816 1060.92 235.816C1060.79 235.816 1060.68 235.925 1060.68 236.06C1060.68 236.195 1060.79 236.305 1060.92 236.305H1160.96C1160.97 236.305 1160.98 236.315 1160.99 236.315H1207.85C1207.98 236.315 1208.09 236.205 1208.09 236.07V78.1628L1284.44 201.67C1284.53 201.815 1284.77 201.815 1284.86 201.67L1361.18 78.202V236.07C1361.18 236.205 1361.29 236.315 1361.43 236.315H1408.31C1408.45 236.315 1408.56 236.205 1408.56 236.07V1.50916C1408.56 1.37214 1408.45 1.26445 1408.31 1.26445Z" fill="white"/>
</mask>
<g mask="url(#mask0_1991_1556)">
<rect width="1409" height="354" fill="url(#paint0_linear_1991_1556)"/>
</g>
</g>
<defs>
<linearGradient id="paint0_linear_1991_1556" x1="1409" y1="354" x2="825.189" y2="-539.298" gradientUnits="userSpaceOnUse">
<stop stop-color="#63C178"/>
<stop offset="1" stop-color="#34AA8E"/>
</linearGradient>
<clipPath id="clip0_1991_1556">
<rect width="1409" height="354" fill="white"/>
</clipPath>
</defs>
</svg>
